<?xml version="1.0" encoding="utf-8"?>
<!-- Generator: Adobe Illustrator 18.1.0, SVG Export Plug-In . SVG Version: 6.00 Build 0)  -->
<svg version="1.1" id="Layer_1" xmlns="http://www.w3.org/2000/svg" xmlns:xlink="http://www.w3.org/1999/xlink" x="0px" y="0px"
	 viewBox="0 0 500 500" enable-background="new 0 0 500 500" xml:space="preserve">
<path fill="#010101" d="M340,2.5h-4.8v-2.5h-41.8v2.5H162.9c-20.7,0-37.6,16.9-37.6,37.6v7.7h-3v23.5h3v28.5h-2.1v18.4h2.1v25.3
	h-2.1v18.4h2.1v300.5c0,20.7,16.9,37.5,37.6,37.5h177c20.7,0,37.5-16.9,37.5-37.5V40.1C377.6,19.4,360.7,2.5,340,2.5z M231.2,43.4
	h44.4v9.2h-44.4V43.4z M211,43.2c2.6,0,4.8,2.1,4.8,4.8c0,2.6-2.1,4.8-4.8,4.8c-2.6,0-4.8-2.1-4.8-4.8
	C206.2,45.4,208.4,43.2,211,43.2z M251.9,476c-12.3,0-22.2-9.9-22.2-22.2c0-12.3,9.9-22.2,22.2-22.2c12.3,0,22.2,9.9,22.2,22.2
	S264.2,476,251.9,476z M360.4,411H143.4V88h217.1V411z"/>
</svg>
