<?xml version="1.0" encoding="utf-8"?>
<!-- Generator: Adobe Illustrator 18.1.0, SVG Export Plug-In . SVG Version: 6.00 Build 0)  -->
<svg version="1.1" id="Layer_1" xmlns="http://www.w3.org/2000/svg" xmlns:xlink="http://www.w3.org/1999/xlink" x="0px" y="0px"
	 viewBox="0 0 500 500" enable-background="new 0 0 500 500" xml:space="preserve">
<path fill="#010101" d="M481.7,81.3H18.3C8.2,81.3,0,89.5,0,99.6v300.8c0,10.1,8.2,18.3,18.3,18.3h463.4c10.1,0,18.3-8.2,18.3-18.3
	V99.6C500,89.5,491.8,81.3,481.7,81.3z M118.4,116.2c0,4.7-3.8,8.5-8.5,8.5s-8.5-3.8-8.5-8.5c0-4.7,3.8-8.5,8.5-8.5
	S118.4,111.5,118.4,116.2z M84.5,116.2c0,4.7-3.8,8.5-8.5,8.5s-8.5-3.8-8.5-8.5c0-4.7,3.8-8.5,8.5-8.5S84.5,111.5,84.5,116.2z
	 M50.7,116.2c0,4.7-3.8,8.5-8.5,8.5s-8.5-3.8-8.5-8.5c0-4.7,3.8-8.5,8.5-8.5S50.7,111.5,50.7,116.2z M481.7,404.1H18.3
	c-1.9,0-3.6-1.7-3.6-3.6V146.3h470.6v254.1C485.3,402.4,483.6,404.1,481.7,404.1z"/>
</svg>
