<?xml version="1.0" encoding="utf-8"?>
<!-- Generator: Adobe Illustrator 18.1.0, SVG Export Plug-In . SVG Version: 6.00 Build 0)  -->
<svg version="1.1" id="Layer_1" xmlns="http://www.w3.org/2000/svg" xmlns:xlink="http://www.w3.org/1999/xlink" x="0px" y="0px"
	 viewBox="0 0 500 500" enable-background="new 0 0 500 500" xml:space="preserve">
<g>
	<path fill="#010101" d="M250,0C111.9,0,0,111.9,0,250s111.9,250,250,250s250-111.9,250-250S388.1,0,250,0z M250,455.3
		c-113.2,0-205.3-92.1-205.3-205.3S136.8,44.7,250,44.7S455.3,136.8,455.3,250S363.2,455.3,250,455.3z"/>
	<rect x="73.8" y="242.4" fill="#010101" width="30.4" height="15.4"/>
	<rect x="395.8" y="242.4" fill="#010101" width="30.4" height="15.4"/>
	<rect x="242.4" y="395.8" fill="#010101" width="15.4" height="30.4"/>
	<rect x="242.4" y="73.8" fill="#010101" width="15.4" height="30.4"/>
	<path fill="#010101" d="M345.8,183.2l-102.2,54.1c-1.4,0.7-2.6,1.7-3.6,2.9c-0.1,0.1-0.2,0.1-0.2,0.2l-57.1,57.1
		c-5.9,5.9-5.9,15.2,0,21.1c5.9,5.9,15.2,5.9,21.1,0l56-56l100.1-53c7.2-3.9,10.1-12.9,6.2-20.2
		C362.2,182.2,353.1,179.3,345.8,183.2z M250,255.9c-3.2,0-5.9-2.6-5.9-5.9c0-3.2,2.6-5.9,5.9-5.9c3.2,0,5.9,2.6,5.9,5.9
		C255.9,253.2,253.2,255.9,250,255.9z"/>
</g>
</svg>
